<mxfile host="app.diagrams.net" modified="2023-09-13T09:17:07.154Z" agent="Mozilla/5.0 (X11; Linux x86_64) AppleWebKit/537.36 (KHTML, like Gecko) Chrome/110.0.0.0 Safari/537.36" etag="cUD4PgbtBiep5f9OUSwW" version="21.7.5" type="github">
  <diagram id="6a731a19-8d31-9384-78a2-239565b7b9f0" name="Page-1">
    <mxGraphModel dx="784" dy="956" grid="0" gridSize="10" guides="1" tooltips="1" connect="1" arrows="1" fold="1" page="0" pageScale="1" pageWidth="1169" pageHeight="827" background="none" math="0" shadow="0">
      <root>
        <mxCell id="0" />
        <mxCell id="1" parent="0" />
        <mxCell id="1350" value="CHAT" style="ellipse;whiteSpace=wrap;html=1;shadow=0;fontFamily=Helvetica;fontSize=16;fontColor=#FFFFFF;align=center;strokeWidth=3;fillColor=#1699D3;strokeColor=none;fontStyle=1" parent="1" vertex="1">
          <mxGeometry x="840" y="611" width="120" height="120" as="geometry" />
        </mxCell>
        <mxCell id="1356" value="CHANNEL OWNER" style="ellipse;whiteSpace=wrap;html=1;shadow=0;fontFamily=Helvetica;fontSize=16;fontColor=#FFFFFF;align=center;strokeWidth=3;fillColor=#E85642;strokeColor=none;fontStyle=1" parent="1" vertex="1">
          <mxGeometry x="592" y="1006" width="120" height="120" as="geometry" />
        </mxCell>
        <mxCell id="1359" style="endArrow=none;strokeWidth=6;strokeColor=#1699D3;html=1;" parent="1" source="1515" target="1350" edge="1">
          <mxGeometry relative="1" as="geometry" />
        </mxCell>
        <mxCell id="1363" style="endArrow=none;strokeWidth=6;strokeColor=#736CA8;html=1;" parent="1" source="1515" target="1516" edge="1">
          <mxGeometry relative="1" as="geometry" />
        </mxCell>
        <mxCell id="1366" value="" style="edgeStyle=none;endArrow=none;strokeWidth=6;strokeColor=#E85642;html=1;" parent="1" source="1516" target="1356" edge="1">
          <mxGeometry x="181" y="226.5" width="100" height="100" as="geometry">
            <mxPoint x="277" y="329.5" as="sourcePoint" />
            <mxPoint x="377" y="229.5" as="targetPoint" />
          </mxGeometry>
        </mxCell>
        <mxCell id="1368" value="invite to play" style="rounded=1;fillColor=#64BBE2;strokeColor=none;strokeWidth=3;shadow=0;html=1;fontColor=#FFFFFF;" parent="1" vertex="1">
          <mxGeometry x="691" y="734" width="130" height="40" as="geometry" />
        </mxCell>
        <mxCell id="1369" value="see other&#39;s profile" style="rounded=1;fillColor=#64BBE2;strokeColor=none;strokeWidth=3;shadow=0;html=1;fontColor=#FFFFFF;" parent="1" vertex="1">
          <mxGeometry x="660" y="687" width="130" height="40" as="geometry" />
        </mxCell>
        <mxCell id="1370" value="block user" style="rounded=1;fillColor=#64BBE2;strokeColor=none;strokeWidth=3;shadow=0;html=1;fontColor=#FFFFFF;" parent="1" vertex="1">
          <mxGeometry x="660" y="640" width="130" height="40" as="geometry" />
        </mxCell>
        <mxCell id="1371" value="send private message" style="rounded=1;fillColor=#64BBE2;strokeColor=none;strokeWidth=3;shadow=0;html=1;fontColor=#FFFFFF;" parent="1" vertex="1">
          <mxGeometry x="674" y="594" width="130" height="40" as="geometry" />
        </mxCell>
        <mxCell id="1372" value="send message in channel" style="rounded=1;fillColor=#64BBE2;strokeColor=none;strokeWidth=3;shadow=0;html=1;fontColor=#FFFFFF;" parent="1" vertex="1">
          <mxGeometry x="695" y="547" width="157" height="40" as="geometry" />
        </mxCell>
        <mxCell id="1373" value="create new channel" style="rounded=1;fillColor=#64BBE2;strokeColor=none;strokeWidth=3;shadow=0;html=1;fontColor=#FFFFFF;" parent="1" vertex="1">
          <mxGeometry x="785" y="500" width="130" height="40" as="geometry" />
        </mxCell>
        <mxCell id="1380" value="" style="edgeStyle=none;endArrow=none;strokeWidth=3;strokeColor=#64BBE2;html=1;" parent="1" source="1350" target="1368" edge="1">
          <mxGeometry x="-221.5" y="56.5" width="100" height="100" as="geometry">
            <mxPoint x="-221.5" y="156.5" as="sourcePoint" />
            <mxPoint x="-121.5" y="56.5" as="targetPoint" />
          </mxGeometry>
        </mxCell>
        <mxCell id="1381" value="" style="edgeStyle=none;endArrow=none;strokeWidth=3;strokeColor=#64BBE2;html=1;" parent="1" source="1350" target="1369" edge="1">
          <mxGeometry x="-221.5" y="56.5" width="100" height="100" as="geometry">
            <mxPoint x="-221.5" y="156.5" as="sourcePoint" />
            <mxPoint x="-121.5" y="56.5" as="targetPoint" />
          </mxGeometry>
        </mxCell>
        <mxCell id="1382" value="" style="edgeStyle=none;endArrow=none;strokeWidth=3;strokeColor=#64BBE2;html=1;" parent="1" source="1350" target="1370" edge="1">
          <mxGeometry x="-221.5" y="56.5" width="100" height="100" as="geometry">
            <mxPoint x="-221.5" y="156.5" as="sourcePoint" />
            <mxPoint x="-121.5" y="56.5" as="targetPoint" />
          </mxGeometry>
        </mxCell>
        <mxCell id="1383" value="" style="edgeStyle=none;endArrow=none;strokeWidth=3;strokeColor=#64BBE2;html=1;" parent="1" source="1350" target="1371" edge="1">
          <mxGeometry x="-221.5" y="56.5" width="100" height="100" as="geometry">
            <mxPoint x="-221.5" y="156.5" as="sourcePoint" />
            <mxPoint x="-121.5" y="56.5" as="targetPoint" />
          </mxGeometry>
        </mxCell>
        <mxCell id="1384" value="" style="edgeStyle=none;endArrow=none;strokeWidth=3;strokeColor=#64BBE2;html=1;" parent="1" source="1350" target="1372" edge="1">
          <mxGeometry x="-221.5" y="56.5" width="100" height="100" as="geometry">
            <mxPoint x="-221.5" y="156.5" as="sourcePoint" />
            <mxPoint x="-121.5" y="56.5" as="targetPoint" />
          </mxGeometry>
        </mxCell>
        <mxCell id="1385" value="" style="edgeStyle=none;endArrow=none;strokeWidth=3;strokeColor=#64BBE2;html=1;" parent="1" source="1350" target="1373" edge="1">
          <mxGeometry x="-221.5" y="56.5" width="100" height="100" as="geometry">
            <mxPoint x="-221.5" y="156.5" as="sourcePoint" />
            <mxPoint x="-121.5" y="56.5" as="targetPoint" />
          </mxGeometry>
        </mxCell>
        <mxCell id="1495" value="set channel password" style="rounded=1;fillColor=#f08e81;strokeColor=none;strokeWidth=3;shadow=0;html=1;fontColor=#FFFFFF;" parent="1" vertex="1">
          <mxGeometry x="454" y="1001" width="120" height="40" as="geometry" />
        </mxCell>
        <mxCell id="1496" value="change password" style="rounded=1;fillColor=#f08e81;strokeColor=none;strokeWidth=3;shadow=0;html=1;fontColor=#FFFFFF;" parent="1" vertex="1">
          <mxGeometry x="454" y="1057" width="120" height="40" as="geometry" />
        </mxCell>
        <mxCell id="1497" value="remove password" style="rounded=1;fillColor=#f08e81;strokeColor=none;strokeWidth=3;shadow=0;html=1;fontColor=#FFFFFF;" parent="1" vertex="1">
          <mxGeometry x="454" y="1106" width="120" height="40" as="geometry" />
        </mxCell>
        <mxCell id="1508" value="" style="edgeStyle=none;endArrow=none;strokeWidth=3;strokeColor=#F08E81;html=1;exitX=0.025;exitY=0.313;exitDx=0;exitDy=0;exitPerimeter=0;" parent="1" source="1356" target="1495" edge="1">
          <mxGeometry x="188.5" y="51.5" width="100" height="100" as="geometry">
            <mxPoint x="586.7005487260649" y="1013.9015943667159" as="sourcePoint" />
            <mxPoint x="298" y="-173.5" as="targetPoint" />
          </mxGeometry>
        </mxCell>
        <mxCell id="1509" value="" style="edgeStyle=none;endArrow=none;strokeWidth=3;strokeColor=#F08E81;html=1;exitX=0;exitY=0.5;exitDx=0;exitDy=0;" parent="1" source="1356" target="1496" edge="1">
          <mxGeometry x="188.5" y="51.5" width="100" height="100" as="geometry">
            <mxPoint x="592.0014680276158" y="1034.0980081451771" as="sourcePoint" />
            <mxPoint x="298" y="-173.5" as="targetPoint" />
          </mxGeometry>
        </mxCell>
        <mxCell id="1510" value="" style="edgeStyle=none;endArrow=none;strokeWidth=3;strokeColor=#F08E81;html=1;" parent="1" source="1356" target="1497" edge="1">
          <mxGeometry x="188.5" y="51.5" width="100" height="100" as="geometry">
            <mxPoint x="203.5" y="-16.5" as="sourcePoint" />
            <mxPoint x="303.5" y="-116.5" as="targetPoint" />
          </mxGeometry>
        </mxCell>
        <mxCell id="1515" value="USER" style="ellipse;whiteSpace=wrap;html=1;shadow=0;fontFamily=Helvetica;fontSize=30;fontColor=#2F5B7C;align=center;strokeColor=#2F5B7C;strokeWidth=6;fillColor=#FFFFFF;fontStyle=1;gradientColor=none;" parent="1" vertex="1">
          <mxGeometry x="931" y="726" width="170" height="170" as="geometry" />
        </mxCell>
        <mxCell id="1516" value="ADMIN" style="ellipse;whiteSpace=wrap;html=1;shadow=0;fontFamily=Helvetica;fontSize=16;align=center;strokeWidth=3;fillColor=#d5e8d4;strokeColor=#82b366;fontStyle=1" parent="1" vertex="1">
          <mxGeometry x="774" y="839" width="120" height="120" as="geometry" />
        </mxCell>
        <mxCell id="1517" value="ser User as Admin" style="rounded=1;fillColor=#d5e8d4;strokeColor=#82b366;strokeWidth=3;shadow=0;html=1;" parent="1" vertex="1">
          <mxGeometry x="580" y="786" width="120" height="40" as="geometry" />
        </mxCell>
        <mxCell id="1522" value="kick User" style="rounded=1;fillColor=#d5e8d4;strokeColor=#82b366;strokeWidth=3;shadow=0;html=1;" parent="1" vertex="1">
          <mxGeometry x="580" y="835" width="120" height="40" as="geometry" />
        </mxCell>
        <mxCell id="1527" value="mute User" style="rounded=1;fillColor=#d5e8d4;strokeColor=#82b366;strokeWidth=3;shadow=0;html=1;" parent="1" vertex="1">
          <mxGeometry x="580" y="934" width="120" height="40" as="geometry" />
        </mxCell>
        <mxCell id="1528" value="" style="edgeStyle=none;endArrow=none;strokeWidth=3;strokeColor=#82b366;html=1;fillColor=#d5e8d4;" parent="1" source="1516" target="1517" edge="1">
          <mxGeometry x="-1498" y="-303.5" width="100" height="100" as="geometry">
            <mxPoint x="-1170" y="-108" as="sourcePoint" />
            <mxPoint x="-1070" y="-208" as="targetPoint" />
          </mxGeometry>
        </mxCell>
        <mxCell id="1529" value="ban User" style="rounded=1;fillColor=#d5e8d4;strokeColor=#82b366;strokeWidth=3;shadow=0;html=1;" parent="1" vertex="1">
          <mxGeometry x="580" y="885" width="120" height="40" as="geometry" />
        </mxCell>
        <mxCell id="1534" value="" style="edgeStyle=none;endArrow=none;strokeWidth=3;strokeColor=#82b366;html=1;fillColor=#d5e8d4;" parent="1" source="1516" target="1522" edge="1">
          <mxGeometry x="-1498" y="-303.5" width="100" height="100" as="geometry">
            <mxPoint x="-1170" y="-108" as="sourcePoint" />
            <mxPoint x="-1070" y="-208" as="targetPoint" />
          </mxGeometry>
        </mxCell>
        <mxCell id="1539" value="" style="edgeStyle=none;endArrow=none;strokeWidth=3;strokeColor=#82b366;html=1;fillColor=#d5e8d4;" parent="1" source="1516" target="1527" edge="1">
          <mxGeometry x="-1498" y="-303.5" width="100" height="100" as="geometry">
            <mxPoint x="-1170" y="-108" as="sourcePoint" />
            <mxPoint x="-1070" y="-208" as="targetPoint" />
          </mxGeometry>
        </mxCell>
        <mxCell id="1540" value="" style="edgeStyle=none;endArrow=none;strokeWidth=3;strokeColor=#82b366;html=1;fillColor=#d5e8d4;" parent="1" source="1516" target="1529" edge="1">
          <mxGeometry x="-1498" y="-303.5" width="100" height="100" as="geometry">
            <mxPoint x="-1170" y="-108" as="sourcePoint" />
            <mxPoint x="-1070" y="-208" as="targetPoint" />
          </mxGeometry>
        </mxCell>
        <mxCell id="1542" style="edgeStyle=none;rounded=0;html=1;exitX=0.5;exitY=1;endArrow=none;endFill=0;jettySize=auto;orthogonalLoop=1;strokeColor=#82b366;strokeWidth=2;fillColor=#d5e8d4;fontSize=20;fontColor=#23445D;" parent="1" source="1529" target="1529" edge="1">
          <mxGeometry relative="1" as="geometry" />
        </mxCell>
        <mxCell id="U_JDzgncAyJ7v2yDqkH5-1543" style="edgeStyle=orthogonalEdgeStyle;rounded=0;orthogonalLoop=1;jettySize=auto;html=1;exitX=0.5;exitY=1;exitDx=0;exitDy=0;" edge="1" parent="1" source="1372" target="1372">
          <mxGeometry relative="1" as="geometry" />
        </mxCell>
        <mxCell id="U_JDzgncAyJ7v2yDqkH5-1544" value="ACCOUNT" style="ellipse;whiteSpace=wrap;html=1;shadow=0;fontFamily=Helvetica;fontSize=16;fontColor=#FFFFFF;align=center;strokeWidth=3;fillColor=#1699D3;strokeColor=none;fontStyle=1" vertex="1" parent="1">
          <mxGeometry x="1147" y="634" width="120" height="120" as="geometry" />
        </mxCell>
        <mxCell id="U_JDzgncAyJ7v2yDqkH5-1545" style="endArrow=none;strokeWidth=6;strokeColor=#1699D3;html=1;exitX=1;exitY=0;exitDx=0;exitDy=0;" edge="1" parent="1" target="U_JDzgncAyJ7v2yDqkH5-1544" source="1515">
          <mxGeometry relative="1" as="geometry">
            <mxPoint x="1077" y="757" as="sourcePoint" />
          </mxGeometry>
        </mxCell>
        <mxCell id="U_JDzgncAyJ7v2yDqkH5-1546" value="enable 2FA" style="rounded=1;fillColor=#64BBE2;strokeColor=none;strokeWidth=3;shadow=0;html=1;fontColor=#FFFFFF;" vertex="1" parent="1">
          <mxGeometry x="1343" y="636" width="130" height="40" as="geometry" />
        </mxCell>
        <mxCell id="U_JDzgncAyJ7v2yDqkH5-1547" value="change avatar" style="rounded=1;fillColor=#64BBE2;strokeColor=none;strokeWidth=3;shadow=0;html=1;fontColor=#FFFFFF;" vertex="1" parent="1">
          <mxGeometry x="1343" y="586" width="130" height="40" as="geometry" />
        </mxCell>
        <mxCell id="U_JDzgncAyJ7v2yDqkH5-1548" value="change username" style="rounded=1;fillColor=#64BBE2;strokeColor=none;strokeWidth=3;shadow=0;html=1;fontColor=#FFFFFF;" vertex="1" parent="1">
          <mxGeometry x="1343" y="536" width="130" height="40" as="geometry" />
        </mxCell>
        <mxCell id="U_JDzgncAyJ7v2yDqkH5-1552" value="" style="edgeStyle=none;endArrow=none;strokeWidth=3;strokeColor=#64BBE2;html=1;" edge="1" parent="1" source="U_JDzgncAyJ7v2yDqkH5-1544" target="U_JDzgncAyJ7v2yDqkH5-1546">
          <mxGeometry x="-221.5" y="56.5" width="100" height="100" as="geometry">
            <mxPoint x="437.5" y="249.5" as="sourcePoint" />
            <mxPoint x="537.5" y="149.5" as="targetPoint" />
          </mxGeometry>
        </mxCell>
        <mxCell id="U_JDzgncAyJ7v2yDqkH5-1553" value="" style="edgeStyle=none;endArrow=none;strokeWidth=3;strokeColor=#64BBE2;html=1;" edge="1" parent="1" source="U_JDzgncAyJ7v2yDqkH5-1544" target="U_JDzgncAyJ7v2yDqkH5-1547">
          <mxGeometry x="-221.5" y="56.5" width="100" height="100" as="geometry">
            <mxPoint x="437.5" y="249.5" as="sourcePoint" />
            <mxPoint x="537.5" y="149.5" as="targetPoint" />
          </mxGeometry>
        </mxCell>
        <mxCell id="U_JDzgncAyJ7v2yDqkH5-1554" value="" style="edgeStyle=none;endArrow=none;strokeWidth=3;strokeColor=#64BBE2;html=1;" edge="1" parent="1" source="U_JDzgncAyJ7v2yDqkH5-1544" target="U_JDzgncAyJ7v2yDqkH5-1548">
          <mxGeometry x="-221.5" y="56.5" width="100" height="100" as="geometry">
            <mxPoint x="437.5" y="249.5" as="sourcePoint" />
            <mxPoint x="537.5" y="149.5" as="targetPoint" />
          </mxGeometry>
        </mxCell>
        <mxCell id="U_JDzgncAyJ7v2yDqkH5-1558" style="edgeStyle=orthogonalEdgeStyle;rounded=0;orthogonalLoop=1;jettySize=auto;html=1;exitX=0.5;exitY=1;exitDx=0;exitDy=0;" edge="1" parent="1">
          <mxGeometry relative="1" as="geometry">
            <mxPoint x="1439.5" y="551" as="sourcePoint" />
            <mxPoint x="1439.5" y="551" as="targetPoint" />
          </mxGeometry>
        </mxCell>
        <mxCell id="U_JDzgncAyJ7v2yDqkH5-1559" value="FRIEND Management" style="ellipse;whiteSpace=wrap;html=1;shadow=0;fontFamily=Helvetica;fontSize=16;fontColor=#FFFFFF;align=center;strokeWidth=3;fillColor=#1699D3;strokeColor=none;fontStyle=1" vertex="1" parent="1">
          <mxGeometry x="1213" y="776" width="120" height="120" as="geometry" />
        </mxCell>
        <mxCell id="U_JDzgncAyJ7v2yDqkH5-1560" style="endArrow=none;strokeWidth=6;strokeColor=#1699D3;html=1;exitX=1;exitY=0.5;exitDx=0;exitDy=0;" edge="1" parent="1" target="U_JDzgncAyJ7v2yDqkH5-1559" source="1515">
          <mxGeometry relative="1" as="geometry">
            <mxPoint x="1080" y="927" as="sourcePoint" />
          </mxGeometry>
        </mxCell>
        <mxCell id="U_JDzgncAyJ7v2yDqkH5-1561" value="remove friend" style="rounded=1;fillColor=#64BBE2;strokeColor=none;strokeWidth=3;shadow=0;html=1;fontColor=#FFFFFF;" vertex="1" parent="1">
          <mxGeometry x="1381" y="864" width="130" height="40" as="geometry" />
        </mxCell>
        <mxCell id="U_JDzgncAyJ7v2yDqkH5-1562" value="accept friend request" style="rounded=1;fillColor=#64BBE2;strokeColor=none;strokeWidth=3;shadow=0;html=1;fontColor=#FFFFFF;" vertex="1" parent="1">
          <mxGeometry x="1381" y="814" width="130" height="40" as="geometry" />
        </mxCell>
        <mxCell id="U_JDzgncAyJ7v2yDqkH5-1563" value="add friend" style="rounded=1;fillColor=#64BBE2;strokeColor=none;strokeWidth=3;shadow=0;html=1;fontColor=#FFFFFF;" vertex="1" parent="1">
          <mxGeometry x="1381" y="764" width="130" height="40" as="geometry" />
        </mxCell>
        <mxCell id="U_JDzgncAyJ7v2yDqkH5-1564" value="" style="edgeStyle=none;endArrow=none;strokeWidth=3;strokeColor=#64BBE2;html=1;" edge="1" parent="1" source="U_JDzgncAyJ7v2yDqkH5-1559" target="U_JDzgncAyJ7v2yDqkH5-1561">
          <mxGeometry x="-221.5" y="56.5" width="100" height="100" as="geometry">
            <mxPoint x="441.5" y="425.5" as="sourcePoint" />
            <mxPoint x="541.5" y="325.5" as="targetPoint" />
          </mxGeometry>
        </mxCell>
        <mxCell id="U_JDzgncAyJ7v2yDqkH5-1565" value="" style="edgeStyle=none;endArrow=none;strokeWidth=3;strokeColor=#64BBE2;html=1;" edge="1" parent="1" source="U_JDzgncAyJ7v2yDqkH5-1559" target="U_JDzgncAyJ7v2yDqkH5-1562">
          <mxGeometry x="-221.5" y="56.5" width="100" height="100" as="geometry">
            <mxPoint x="441.5" y="425.5" as="sourcePoint" />
            <mxPoint x="541.5" y="325.5" as="targetPoint" />
          </mxGeometry>
        </mxCell>
        <mxCell id="U_JDzgncAyJ7v2yDqkH5-1566" value="" style="edgeStyle=none;endArrow=none;strokeWidth=3;strokeColor=#64BBE2;html=1;" edge="1" parent="1" source="U_JDzgncAyJ7v2yDqkH5-1559" target="U_JDzgncAyJ7v2yDqkH5-1563">
          <mxGeometry x="-221.5" y="56.5" width="100" height="100" as="geometry">
            <mxPoint x="441.5" y="425.5" as="sourcePoint" />
            <mxPoint x="541.5" y="325.5" as="targetPoint" />
          </mxGeometry>
        </mxCell>
        <mxCell id="U_JDzgncAyJ7v2yDqkH5-1567" style="edgeStyle=orthogonalEdgeStyle;rounded=0;orthogonalLoop=1;jettySize=auto;html=1;exitX=0.5;exitY=1;exitDx=0;exitDy=0;" edge="1" parent="1">
          <mxGeometry relative="1" as="geometry">
            <mxPoint x="1477.5" y="779" as="sourcePoint" />
            <mxPoint x="1477.5" y="779" as="targetPoint" />
          </mxGeometry>
        </mxCell>
        <mxCell id="U_JDzgncAyJ7v2yDqkH5-1568" value="PLAYER PROFILE" style="ellipse;whiteSpace=wrap;html=1;shadow=0;fontFamily=Helvetica;fontSize=16;fontColor=#FFFFFF;align=center;strokeWidth=3;fillColor=#1699D3;strokeColor=none;fontStyle=1" vertex="1" parent="1">
          <mxGeometry x="1134" y="958" width="120" height="120" as="geometry" />
        </mxCell>
        <mxCell id="U_JDzgncAyJ7v2yDqkH5-1569" style="endArrow=none;strokeWidth=6;strokeColor=#1699D3;html=1;exitX=1;exitY=1;exitDx=0;exitDy=0;" edge="1" parent="1" target="U_JDzgncAyJ7v2yDqkH5-1568" source="1515">
          <mxGeometry relative="1" as="geometry">
            <mxPoint x="1022" y="993" as="sourcePoint" />
          </mxGeometry>
        </mxCell>
        <mxCell id="U_JDzgncAyJ7v2yDqkH5-1570" value="match history" style="rounded=1;fillColor=#64BBE2;strokeColor=none;strokeWidth=3;shadow=0;html=1;fontColor=#FFFFFF;" vertex="1" parent="1">
          <mxGeometry x="1302" y="1046" width="130" height="40" as="geometry" />
        </mxCell>
        <mxCell id="U_JDzgncAyJ7v2yDqkH5-1571" value="stats" style="rounded=1;fillColor=#64BBE2;strokeColor=none;strokeWidth=3;shadow=0;html=1;fontColor=#FFFFFF;" vertex="1" parent="1">
          <mxGeometry x="1302" y="996" width="130" height="40" as="geometry" />
        </mxCell>
        <mxCell id="U_JDzgncAyJ7v2yDqkH5-1572" value="connection status" style="rounded=1;fillColor=#64BBE2;strokeColor=none;strokeWidth=3;shadow=0;html=1;fontColor=#FFFFFF;" vertex="1" parent="1">
          <mxGeometry x="1302" y="946" width="130" height="40" as="geometry" />
        </mxCell>
        <mxCell id="U_JDzgncAyJ7v2yDqkH5-1573" value="" style="edgeStyle=none;endArrow=none;strokeWidth=3;strokeColor=#64BBE2;html=1;" edge="1" parent="1" source="U_JDzgncAyJ7v2yDqkH5-1568" target="U_JDzgncAyJ7v2yDqkH5-1570">
          <mxGeometry x="-221.5" y="56.5" width="100" height="100" as="geometry">
            <mxPoint x="362.5" y="607.5" as="sourcePoint" />
            <mxPoint x="462.5" y="507.5" as="targetPoint" />
          </mxGeometry>
        </mxCell>
        <mxCell id="U_JDzgncAyJ7v2yDqkH5-1574" value="" style="edgeStyle=none;endArrow=none;strokeWidth=3;strokeColor=#64BBE2;html=1;" edge="1" parent="1" source="U_JDzgncAyJ7v2yDqkH5-1568" target="U_JDzgncAyJ7v2yDqkH5-1571">
          <mxGeometry x="-221.5" y="56.5" width="100" height="100" as="geometry">
            <mxPoint x="362.5" y="607.5" as="sourcePoint" />
            <mxPoint x="462.5" y="507.5" as="targetPoint" />
          </mxGeometry>
        </mxCell>
        <mxCell id="U_JDzgncAyJ7v2yDqkH5-1575" value="" style="edgeStyle=none;endArrow=none;strokeWidth=3;strokeColor=#64BBE2;html=1;" edge="1" parent="1" source="U_JDzgncAyJ7v2yDqkH5-1568" target="U_JDzgncAyJ7v2yDqkH5-1572">
          <mxGeometry x="-221.5" y="56.5" width="100" height="100" as="geometry">
            <mxPoint x="362.5" y="607.5" as="sourcePoint" />
            <mxPoint x="462.5" y="507.5" as="targetPoint" />
          </mxGeometry>
        </mxCell>
        <mxCell id="U_JDzgncAyJ7v2yDqkH5-1576" style="edgeStyle=orthogonalEdgeStyle;rounded=0;orthogonalLoop=1;jettySize=auto;html=1;exitX=0.5;exitY=1;exitDx=0;exitDy=0;" edge="1" parent="1">
          <mxGeometry relative="1" as="geometry">
            <mxPoint x="1398.5" y="961" as="sourcePoint" />
            <mxPoint x="1398.5" y="961" as="targetPoint" />
          </mxGeometry>
        </mxCell>
      </root>
    </mxGraphModel>
  </diagram>
</mxfile>
